<svg xmlns="http://www.w3.org/2000/svg" width="319.848" height="225.134" viewBox="0 0 319.848 225.134">
  <g id="Biking" transform="translate(-3.433)">
    <path id="Path_84" data-name="Path 84" d="M195.992,26.994,197.4,143.508l61.026,29.726L257.018,56.72Z" transform="translate(-128.414 -17.687)" fill="#f2f2f2"/>
    <path id="Path_85" data-name="Path 85" d="M55.557,0,9.957,93.613,71.83,123.753,70.417,7.239Z" transform="translate(-6.524)" fill="#f2f2f2"/>
    <path id="Path_86" data-name="Path 86" d="M703.563,267.414,580.4,207.422l1.412,116.513,76.147,37.092Z" transform="translate(-380.281 -135.903)" fill="#f2f2f2"/>
    <path id="Path_87" data-name="Path 87" d="M388.982,113.208l1.412,116.513,61.026,29.726-1.412-116.514Z" transform="translate(-254.862 -74.174)" fill="#f2f2f2"/>
    <path id="Path_88" data-name="Path 88" d="M578.426,500.98,576.7,539.6s4.482,36.549,3.448,37.583-3.793,3.1-1.724,5.517,9.654,4.138,10,2.758,1.034-40.686,1.034-40.686l2.414-46.548Z" transform="translate(-423.094 -368.942)" fill="#2f2e41"/>
    <path id="Path_89" data-name="Path 89" d="M578.426,500.98,576.7,539.6s4.482,36.549,3.448,37.583-3.793,3.1-1.724,5.517,9.654,4.138,10,2.758,1.034-40.686,1.034-40.686l2.414-46.548Z" transform="translate(-423.094 -368.942)" opacity="0.2"/>
    <path id="Path_90" data-name="Path 90" d="M556.745,741.222s-8.62,6.551-9.654,6.551-10.344,3.1-3.793,4.482,22.412.69,22.757-1.379-1.034-8.347-1.034-8.347Z" transform="translate(-399.689 -528.156)" fill="#2f2e41"/>
    <path id="Path_91" data-name="Path 91" d="M556.745,741.222s-8.62,6.551-9.654,6.551-10.344,3.1-3.793,4.482,22.412.69,22.757-1.379-1.034-8.347-1.034-8.347Z" transform="translate(-399.689 -528.156)" opacity="0.2"/>
    <path id="Path_92" data-name="Path 92" d="M502.252,422.222s-3.793,1.379-3.793,2.414-3.448,14.137-4.138,14.826-1.034,3.793-1.034,3.793-3.448,7.93-2.758,7.93,6.551-1.379,6.9,0,3.1-8.62,3.1-8.62l5.862-11.723Z" transform="translate(-366.574 -319.147)" fill="#7272ff"/>
    <path id="Path_93" data-name="Path 93" d="M490.7,507.6s1.034,7.586,3.793,8.275,0-9.654,0-9.654Z" transform="translate(-366.747 -374.184)" fill="#ffb8b8"/>
    <path id="Path_94" data-name="Path 94" d="M516.7,400.5s2.069,4.482,3.1,6.9,10.689-6.206,10.689-6.206-5.172-3.793-5.172-5.517S516.7,400.5,516.7,400.5Z" transform="translate(-383.782 -301.562)" fill="#ffb8b8"/>
    <path id="Path_95" data-name="Path 95" d="M226.914,702.76c2.312,8.548,10.233,13.842,10.233,13.842s4.171-8.565,1.859-17.113-10.233-13.842-10.233-13.842S224.6,694.212,226.914,702.76Z" transform="translate(-193.455 -491.743)" fill="#3f3d56"/>
    <path id="Path_96" data-name="Path 96" d="M207.962,717.226c6.345,6.177,7.12,15.672,7.12,15.672s-9.512-.519-15.857-6.7-7.12-15.672-7.12-15.672S201.617,711.049,207.962,717.226Z" transform="translate(-171.105 -508.046)" fill="#7272ff"/>
    <path id="Path_97" data-name="Path 97" d="M407.079,656.975A31.377,31.377,0,1,1,438.455,625.6,31.377,31.377,0,0,1,407.079,656.975Zm0-62.064A30.687,30.687,0,1,0,437.766,625.6,30.687,30.687,0,0,0,407.079,594.912Z" transform="translate(-291.399 -431.841)" fill="#2f2e41"/>
    <path id="Path_98" data-name="Path 98" d="M687.079,656.975A31.377,31.377,0,1,1,718.455,625.6a31.377,31.377,0,0,1-31.377,31.377Zm0-62.064A30.687,30.687,0,1,0,717.766,625.6,30.687,30.687,0,0,0,687.079,594.912Z" transform="translate(-474.855 -431.841)" fill="#2f2e41"/>
    <circle id="Ellipse_12" data-name="Ellipse 12" cx="2.069" cy="2.069" r="2.069" transform="translate(113.611 191.689)" fill="#2f2e41"/>
    <circle id="Ellipse_13" data-name="Ellipse 13" cx="2.069" cy="2.069" r="2.069" transform="translate(210.844 191.689)" fill="#2f2e41"/>
    <path id="Path_99" data-name="Path 99" d="M343.214,472.481l-.634-.271,18.021-42.28,51.1,1.043.1.155,25.17,39.307-.581.372-25.071-39.152-50.268-1.026Z" transform="translate(-224.459 -281.692)" fill="#2f2e41"/>
    <path id="Path_100" data-name="Path 100" d="M500.125,487.377l13.245-46.7.663.188-12.96,45.7,34.652-4.417.087.684Z" transform="translate(-327.683 -288.729)" fill="#2f2e41"/>
    <rect id="Rectangle_19" data-name="Rectangle 19" width="0.69" height="50.715" transform="matrix(0.714, -0.7, 0.7, 0.714, 134.398, 159.173)" fill="#2f2e41"/>
    <rect id="Rectangle_20" data-name="Rectangle 20" width="7.863" height="0.69" transform="matrix(0.263, -0.965, 0.965, 0.263, 187.066, 148.497)" fill="#2f2e41"/>
    <path id="Path_101" data-name="Path 101" d="M389.319,401.744l-.673-.153,1.628-7.164H384.5v-4.482h.69v3.793h5.949Z" transform="translate(-251.925 -255.493)" fill="#2f2e41"/>
    <path id="Path_102" data-name="Path 102" d="M643.7,509.706s0-2.069,4.482-1.034,18.274,3.793,19.309,3.448.69,2.069-3.793,3.1-9.654-1.379-10.689-2.069S643.7,509.706,643.7,509.706Z" transform="translate(-466.993 -375.599)" fill="#2f2e41"/>
    <rect id="Rectangle_21" data-name="Rectangle 21" width="8.965" height="3.448" transform="translate(155.332 195.826)" fill="#7272ff"/>
    <path id="Path_103" data-name="Path 103" d="M619.6,692.014a6.9,6.9,0,1,1,6.9-6.9A6.9,6.9,0,0,1,619.6,692.014Zm0-13.1a6.206,6.206,0,1,0,6.206,6.206,6.206,6.206,0,0,0-6.206-6.206Z" transform="translate(-446.682 -486.878)" fill="#2f2e41"/>
    <circle id="Ellipse_14" data-name="Ellipse 14" cx="8.275" cy="8.275" r="8.275" transform="translate(127.748 85.836)" fill="#ffb8b8"/>
    <path id="Path_104" data-name="Path 104" d="M557.141,499.195S533.35,512.987,533.7,517.469s18.274,28.963,18.274,28.963,1.379,7.241,2.758,7.241,10,3.1,10.344,1.034-2.758-4.482-2.414-5.862S547.487,522.3,547.487,522.3s33.207-12.413,26.258-23.1S557.141,499.195,557.141,499.195Z" transform="translate(-394.914 -366.467)" fill="#2f2e41"/>
    <path id="Path_105" data-name="Path 105" d="M575.664,662.222s-4.138,1.034-4.827,2.414-12.758,5.862-9.31,6.9,23.446,1.379,24.136.69,0-8.693-2.758-8.657S577.043,664.636,575.664,662.222Z" transform="translate(-412.747 -476.395)" fill="#2f2e41"/>
    <path id="Path_106" data-name="Path 106" d="M519.805,413.975l7.758-9.482s8.792-2.586,12.585,2.586,14.137,17.93,17.585,20.688,8.275,13.447,6.551,13.792-11.378-3.793-15.171-1.034-11.034,3.1-11.378,1.724S516.7,417.768,516.7,414.665s2.2-3.769,2.2-3.769Z" transform="translate(-383.782 -307.107)" fill="#7272ff"/>
    <rect id="Rectangle_22" data-name="Rectangle 22" width="13.102" height="2.069" rx="1.034" transform="matrix(0.943, 0.333, -0.333, 0.943, 128.812, 130.258)" fill="#2f2e41"/>
    <path id="Path_107" data-name="Path 107" d="M448.616,500.222s-12.068,3.448-11.034,7.241,12.068-4.482,12.068-4.482Z" transform="translate(-331.902 -370.252)" fill="#ffb8b8"/>
    <path id="Path_108" data-name="Path 108" d="M496.947,412.989s-4.827,4.138-5.862,8.965-6.206,13.447-6.206,13.447l-21.033,6.9s-1.379,6.551.69,6.551,25.17-4.827,25.86-5.862S505.912,422.3,505.912,422.3,507.291,411.609,496.947,412.989Z" transform="translate(-348.856 -313.016)" fill="#7272ff"/>
    <path id="Path_109" data-name="Path 109" d="M502.246,365.2a1.632,1.632,0,0,1-.711.357.507.507,0,0,1-.588-.407,2.107,2.107,0,0,1-.806,1.034c-.395.206-1.005.033-1.062-.408a1.863,1.863,0,0,1-.429.905.642.642,0,0,1-.9.03,23.207,23.207,0,0,1,.12,2.876,3.661,3.661,0,0,0,1.035,2.607c1.057.92,2.646.693,4.036.518a1.225,1.225,0,0,1,.632.035c.52.222.5.946.5,1.512a4.2,4.2,0,0,0,3.679,3.99,2.106,2.106,0,0,0,1.565-.382c.395-.335.6-.88,1.049-1.131.736-.409,1.628.187,2.166.835s1.068,1.444,1.9,1.562c1.1.157,1.941-.966,2.353-2a11.661,11.661,0,0,0-.232-9.061C514.254,363.054,506.394,362.261,502.246,365.2Z" transform="translate(-371.363 -280.667)" fill="#2f2e41"/>
    <path id="Path_110" data-name="Path 110" d="M905.091,629.42l-.613-.317c7.959-15.386,3.7-35.368-1.268-49.421a151.46,151.46,0,0,0-12.853-27.127l.583-.368a152.235,152.235,0,0,1,12.92,27.265C908.877,593.634,913.162,613.815,905.091,629.42Z" transform="translate(-628.601 -404.3)" fill="#2f2e41"/>
    <rect id="Rectangle_23" data-name="Rectangle 23" width="24.888" height="0.689" transform="translate(277.919 172.493) rotate(-79.645)" fill="#2f2e41"/>
    <rect id="Rectangle_24" data-name="Rectangle 24" width="0.69" height="33.911" transform="matrix(0.732, -0.681, 0.681, 0.732, 252.14, 169.339)" fill="#2f2e41"/>
    <rect id="Rectangle_25" data-name="Rectangle 25" width="20.001" height="0.69" transform="matrix(0.586, -0.81, 0.81, 0.586, 282.458, 212.35)" fill="#2f2e41"/>
    <circle id="Ellipse_15" data-name="Ellipse 15" cx="3.448" cy="3.448" r="3.448" transform="translate(281.01 134.625)" fill="#7272ff"/>
    <circle id="Ellipse_16" data-name="Ellipse 16" cx="3.448" cy="3.448" r="3.448" transform="translate(243.427 161.174)" fill="#3f3d56"/>
    <circle id="Ellipse_17" data-name="Ellipse 17" cx="3.448" cy="3.448" r="3.448" transform="translate(258.599 164.622)" fill="#3f3d56"/>
    <circle id="Ellipse_18" data-name="Ellipse 18" cx="3.448" cy="3.448" r="3.448" transform="translate(251.703 178.069)" fill="#7272ff"/>
    <circle id="Ellipse_19" data-name="Ellipse 19" cx="3.448" cy="3.448" r="3.448" transform="translate(294.802 186.689)" fill="#3f3d56"/>
    <circle id="Ellipse_20" data-name="Ellipse 20" cx="3.448" cy="3.448" r="3.448" transform="translate(283.424 190.482)" fill="#3f3d56"/>
    <circle id="Ellipse_21" data-name="Ellipse 21" cx="3.448" cy="3.448" r="3.448" transform="translate(291.354 201.516)" fill="#3f3d56"/>
    <circle id="Ellipse_22" data-name="Ellipse 22" cx="3.448" cy="3.448" r="3.448" transform="translate(255.151 138.762)" fill="#3f3d56"/>
    <rect id="Rectangle_27" data-name="Rectangle 27" width="33.79" height="33.79" transform="translate(24.158 136.324) rotate(30)" fill="#f2f2f2"/>
    <path id="Path_111" data-name="Path 111" d="M224.788,640.756a7.586,7.586,0,1,1,7.586-7.586A7.585,7.585,0,0,1,224.788,640.756Zm0-14.482a6.9,6.9,0,1,0,6.9,6.9A6.9,6.9,0,0,0,224.788,626.275Z" transform="translate(-187.549 -452.39)" fill="#3f3d56"/>
  </g>
</svg>
