<svg xmlns="http://www.w3.org/2000/svg" xmlns:xlink="http://www.w3.org/1999/xlink" width="360" height="229.115" viewBox="0 0 360 229.115">
  <defs>
    <linearGradient id="linear-gradient" x1="0.5" x2="0.5" y2="1" gradientUnits="objectBoundingBox">
      <stop offset="0" stop-color="#5b86e5"/>
      <stop offset="1" stop-color="#36d1dc"/>
    </linearGradient>
  </defs>
  <path id="Subtraction_6" data-name="Subtraction 6" d="M-1430.525,1709.116c-3.886,0-7.746-.075-11.475-.222v-13.85c12.113-11.219,23.89-22.917,35.006-34.769,28.406-30.286,66.356-76.6,85.841-125.244a105.652,105.652,0,0,1,9.239-18.278,55.258,55.258,0,0,1,10.248-11.981,35.809,35.809,0,0,1,11.15-6.551,35.467,35.467,0,0,1,11.945-1.99,51.781,51.781,0,0,1,12.905,1.769,94.866,94.866,0,0,1,13.51,4.689c9.175,3.891,18.493,9.01,28.358,14.429l.011.006.011.005.005,0,.7.386.688.378.172.1.372.2.372.2c18,9.877,40.408,22.169,61.408,22.169a52.343,52.343,0,0,0,7.388-.515c41.841-5.968,63.537-46.675,70.666-60.052v146a174.916,174.916,0,0,1-24.9-13.783l-.006,0c-10.144-6.466-22.768-14.512-54.457-29.137-9.075-4.188-16.7-6.224-23.317-6.224a27.98,27.98,0,0,0-11.24,2.254,35.9,35.9,0,0,0-9.631,6.314c-6.115,5.413-11.9,13.146-18.6,22.1l-.019.024c-13.183,17.62-29.588,39.549-59.737,60.532C-1335.21,1703.784-1397.788,1709.116-1430.525,1709.116Z" transform="translate(1442 -1480.001)" opacity="0.5" fill="url(#linear-gradient)"/>
</svg>
