<svg id="Cycling" xmlns="http://www.w3.org/2000/svg" xmlns:xlink="http://www.w3.org/1999/xlink" width="259.875" height="193.742" viewBox="0 0 259.875 193.742">
  <defs>
    <linearGradient id="linear-gradient" x1="0.5" y1="1" x2="0.5" gradientUnits="objectBoundingBox">
      <stop offset="0" stop-color="gray" stop-opacity="0.251"/>
      <stop offset="0.54" stop-color="gray" stop-opacity="0.122"/>
      <stop offset="1" stop-color="gray" stop-opacity="0.102"/>
    </linearGradient>
  </defs>
  <path id="Path_198" data-name="Path 198" d="M912.98,505.83s-4.967,9.749-.92,15.081-.369,19.866-.369,19.866" transform="translate(-892.095 -395.74)" fill="none" stroke="#5b86e5" stroke-miterlimit="10" stroke-width="1"/>
  <path id="Path_199" data-name="Path 199" d="M908.71,486.546a1.982,1.982,0,1,0,1.379-3.406A5.744,5.744,0,0,0,908.71,486.546Z" transform="translate(-889.295 -379.49)" fill="#5b86e5"/>
  <path id="Path_200" data-name="Path 200" d="M914.274,505.83s4.966,9.749.919,15.081.369,19.866.369,19.866" transform="translate(-895.963 -395.74)" fill="none" stroke="#5b86e5" stroke-miterlimit="10" stroke-width="1"/>
  <path id="Path_201" data-name="Path 201" d="M919.9,486.546a1.982,1.982,0,1,1-1.379-3.406A5.744,5.744,0,0,1,919.9,486.546Z" transform="translate(-900.118 -379.49)" fill="#5b86e5"/>
  <path id="Path_202" data-name="Path 202" d="M919.9,486.546a1.982,1.982,0,1,1-1.379-3.406A5.744,5.744,0,0,1,919.9,486.546Z" transform="translate(-900.118 -379.49)" opacity="0.1"/>
  <path id="Path_203" data-name="Path 203" d="M929.18,505.83s-4.967,9.749-.919,15.081-.369,19.866-.369,19.866" transform="translate(-912.892 -395.74)" fill="none" stroke="#5b86e5" stroke-miterlimit="10" stroke-width="1"/>
  <path id="Path_204" data-name="Path 204" d="M924.91,486.546a1.982,1.982,0,1,0,1.379-3.406A5.744,5.744,0,0,0,924.91,486.546Z" transform="translate(-910.093 -379.49)" fill="#5b86e5"/>
  <path id="Path_205" data-name="Path 205" d="M921.455,514.066a5.734,5.734,0,0,0,3.354,1.5,4.886,4.886,0,0,0-4.72-4.9A5.724,5.724,0,0,0,921.455,514.066Z" transform="translate(-905.866 -399.2)" fill="#5b86e5"/>
  <path id="Path_206" data-name="Path 206" d="M921.915,537.766a5.734,5.734,0,0,0,3.354,1.5,4.886,4.886,0,0,0-4.72-4.9A5.647,5.647,0,0,0,921.915,537.766Z" transform="translate(-906.456 -416.174)" fill="#5b86e5"/>
  <path id="Path_207" data-name="Path 207" d="M897.129,555.186a5.731,5.731,0,0,0-1.189,3.474,4.888,4.888,0,0,0,4.461-5.14A5.732,5.732,0,0,0,897.129,555.186Z" transform="translate(-874.603 -429.896)" fill="#5b86e5"/>
  <path id="Path_208" data-name="Path 208" d="M900.895,506.911a5.732,5.732,0,0,0-2.075,3.031,4.885,4.885,0,0,0,5.673-3.76A5.719,5.719,0,0,0,900.895,506.911Z" transform="translate(-879.513 -395.961)" fill="#5b86e5"/>
  <path id="Path_209" data-name="Path 209" d="M900.895,506.911a5.732,5.732,0,0,0-2.075,3.031,4.885,4.885,0,0,0,5.673-3.76A5.719,5.719,0,0,0,900.895,506.911Z" transform="translate(-879.513 -395.961)" opacity="0.1"/>
  <path id="Path_210" data-name="Path 210" d="M930.467,505.83s4.972,9.749.919,15.09.369,19.866.369,19.866" transform="translate(-916.754 -395.74)" fill="none" stroke="#5b86e5" stroke-miterlimit="10" stroke-width="1"/>
  <path id="Path_211" data-name="Path 211" d="M936.1,486.546a1.982,1.982,0,1,1-1.379-3.406A5.744,5.744,0,0,1,936.1,486.546Z" transform="translate(-920.915 -379.49)" fill="#5b86e5"/>
  <path id="Path_212" data-name="Path 212" d="M936.1,486.546a1.982,1.982,0,1,1-1.379-3.406A5.744,5.744,0,0,1,936.1,486.546Z" transform="translate(-920.915 -379.49)" opacity="0.1"/>
  <path id="Path_213" data-name="Path 213" d="M933.112,519.5a5.812,5.812,0,0,1,1.419,3.406,5.727,5.727,0,0,1-3.372-1.456,5.812,5.812,0,0,1-1.419-3.406A5.72,5.72,0,0,1,933.112,519.5Z" transform="translate(-918.326 -404.485)" fill="#5b86e5"/>
  <path id="Path_214" data-name="Path 214" d="M933.112,519.5a5.812,5.812,0,0,1,1.419,3.406,5.727,5.727,0,0,1-3.372-1.456,5.812,5.812,0,0,1-1.419-3.406A5.72,5.72,0,0,1,933.112,519.5Z" transform="translate(-918.326 -404.485)" opacity="0.1"/>
  <path id="Path_215" data-name="Path 215" d="M942.221,552.326a5.811,5.811,0,0,1,1.419,3.406,5.726,5.726,0,0,1-3.372-1.456,5.812,5.812,0,0,1-1.419-3.406A5.685,5.685,0,0,1,942.221,552.326Z" transform="translate(-930.021 -427.998)" fill="#5b86e5"/>
  <path id="Path_216" data-name="Path 216" d="M937.626,536.595s-2.988-4.711-7.186-4.825" transform="translate(-921.62 -414.319)" fill="none" stroke="#5b86e5" stroke-miterlimit="10" stroke-width="1"/>
  <path id="Path_217" data-name="Path 217" d="M896.92,526.565s2.988-4.711,7.186-4.825" transform="translate(-878.586 -407.135)" fill="none" stroke="#5b86e5" stroke-miterlimit="10" stroke-width="1"/>
  <path id="Path_218" data-name="Path 218" d="M928.056,550.265s-2.988-4.711-7.186-4.825" transform="translate(-909.333 -424.109)" fill="none" stroke="#5b86e5" stroke-miterlimit="10" stroke-width="1"/>
  <ellipse id="Ellipse_34" data-name="Ellipse 34" cx="0.775" cy="0.775" rx="0.775" ry="0.775" transform="translate(8.182 116.651)" fill="#5b86e5"/>
  <ellipse id="Ellipse_35" data-name="Ellipse 35" cx="0.775" cy="0.775" rx="0.775" ry="0.775" transform="translate(24.671 113.87)" fill="#5b86e5"/>
  <path id="Path_219" data-name="Path 219" d="M903.3,555.735s2.988-4.711,7.186-4.825" transform="translate(-886.777 -428.027)" fill="none" stroke="#5b86e5" stroke-miterlimit="10" stroke-width="1"/>
  <ellipse id="Ellipse_36" data-name="Ellipse 36" cx="0.775" cy="0.775" rx="0.775" ry="0.775" transform="translate(22.86 122.148)" fill="#5b86e5"/>
  <ellipse id="Ellipse_37" data-name="Ellipse 37" cx="0.775" cy="0.775" rx="0.775" ry="0.775" transform="translate(10.705 120.596)" fill="#5b86e5"/>
  <path id="Path_220" data-name="Path 220" d="M887.191,591.15s7.2-1.442,9.124-3.363,10.566-5.273,11.525-2.881,12.967,10.566,4.8,12.008-19.21,1.921-21.611.959S887.191,591.15,887.191,591.15Z" transform="translate(-887.191 -451.781)" fill="#a8a8a8"/>
  <path id="Path_221" data-name="Path 221" d="M912.645,613.771c-8.165,1.442-19.21,1.921-21.611.959-1.828-.732-3.1-4.257-3.6-5.88l-.241.051s1.442,5.764,3.843,6.723,13.446.48,21.611-.959c2.356-.417,3.031-1.393,2.776-2.628C915.219,612.84,914.39,613.462,912.645,613.771Z" transform="translate(-887.191 -469.523)" opacity="0.2"/>
  <path id="Path_222" data-name="Path 222" d="M120.683,645.66s-2.378,3.122,1.1,7.8,6.343,8.659,5.182,11.59c0,0-5.245-8.721-9.513-8.843S115.989,650.9,120.683,645.66Z" transform="translate(120.105 -495.887)" fill="#5b86e5"/>
  <path id="Path_223" data-name="Path 223" d="M121.157,645.66a3.852,3.852,0,0,0-.485.976c-4.166,4.893-6.383,9.459-2.381,9.575,3.729.108,8.2,6.774,9.275,8.46a3.625,3.625,0,0,1-.128.383s-5.245-8.721-9.513-8.843S116.463,650.9,121.157,645.66Z" transform="translate(119.631 -495.887)" opacity="0.1"/>
  <path id="Path_224" data-name="Path 224" d="M152,657.864c0,1.1.122,1.987.284,1.987s.284-.888.284-1.987-.153-.568-.3-.568S152,656.772,152,657.864Z" transform="translate(84.36 -504.129)" fill="#ffd037"/>
  <path id="Path_225" data-name="Path 225" d="M153.3,662.339c.962.525,1.8.851,1.87.707s-.647-.667-1.609-1.189-.582-.142-.656,0S152.337,661.814,153.3,662.339Z" transform="translate(81.551 -507.295)" fill="#ffd037"/>
  <path id="Path_226" data-name="Path 226" d="M81.868,645.66s2.378,3.122-1.1,7.8-6.343,8.659-5.182,11.588c0,0,5.245-8.721,9.513-8.843S86.562,650.9,81.868,645.66Z" transform="translate(171.484 -495.887)" fill="#5b86e5"/>
  <path id="Path_227" data-name="Path 227" d="M81.7,645.66a3.852,3.852,0,0,1,.485.976c4.163,4.893,6.383,9.459,2.39,9.573-3.729.108-8.2,6.774-9.275,8.46a3.616,3.616,0,0,0,.128.383s5.245-8.721,9.513-8.843S86.4,650.9,81.7,645.66Z" transform="translate(171.649 -495.887)" opacity="0.1"/>
  <path id="Path_228" data-name="Path 228" d="M79.128,657.864c0,1.1-.122,1.987-.284,1.987s-.284-.888-.284-1.987.153-.568.3-.568S79.128,656.772,79.128,657.864Z" transform="translate(178.643 -504.129)" fill="#ffd037"/>
  <path id="Path_229" data-name="Path 229" d="M73.018,662.339c-.962.525-1.8.851-1.87.707s.647-.667,1.609-1.189.582-.142.656,0S73.98,661.814,73.018,662.339Z" transform="translate(186.27 -507.295)" fill="#ffd037"/>
  <path id="Path_230" data-name="Path 230" d="M105.963,703.486s-6.649-.2-8.653-1.632S87.093,698.732,86.585,701s-9.993,11.383-2.486,11.443,17.442-1.169,19.44-2.378S105.963,703.486,105.963,703.486Z" transform="translate(151.052 -534.729)" fill="#a8a8a8"/>
  <path id="Path_231" data-name="Path 231" d="M83.973,720.709c7.507.06,17.442-1.169,19.443-2.387,1.524-.928,2.131-4.257,2.333-5.792h.221s-.42,5.364-2.421,6.581-11.937,2.449-19.443,2.387c-2.168-.017-2.915-.789-2.875-1.93C81.532,720.266,82.361,720.695,83.973,720.709Z" transform="translate(151.042 -543.779)" opacity="0.2"/>
  <path id="Path_232" data-name="Path 232" d="M228.937,243.764a34.6,34.6,0,0,1,8.724,1.112l10.464-32.3.136-.42-.891-.261c-2.1-4.617,3.5-5.31,3.5-5.31l.471.159c2.96-.851,8.088-1.3,13.41-1.513v-6.448a29.981,29.981,0,0,0-1.887-10.356c-.15-.406-.284-.786-.386-1.149-.023-.074-.045-.148-.065-.219l-.037-.133c-.026-.094-.054-.19-.077-.284s-.034-.131-.048-.2-.034-.133-.048-.2l-.02-.094c-.023-.1-.043-.19-.062-.284a.589.589,0,0,0-.023-.119c-.009-.04-.031-.159-.045-.238s-.017-.108-.026-.162-.02-.119-.028-.176a.5.5,0,0,0-.014-.111,1.472,1.472,0,0,1-.028-.207V184.8c0-.082-.02-.165-.026-.244a.621.621,0,0,1,0-.108v-1.3a19.3,19.3,0,0,0,.045-3.3l-.4-4.972a9.606,9.606,0,0,1-3.213-1.7s-.253-7.416-1.013-13.285a21.853,21.853,0,0,1,7.614-19.645c.511-.423,1.042-.829,1.6-1.206a9.882,9.882,0,0,1-.238-1.22,7.292,7.292,0,0,0-.9-1.3,13.5,13.5,0,0,0-1.68-1.135,6.3,6.3,0,0,1-2.043-3.721,13.521,13.521,0,0,1,.284-8.625,7.845,7.845,0,0,1,7.191-4.765c.959.043,1.9.284,2.838.394,2.492.253,4.958-.568,7.458-.718a4.288,4.288,0,0,1,2.137.284,3.889,3.889,0,0,1,1.286,1.135,12.092,12.092,0,0,1,2.293,5.043c.307,1.382.307,2.634,2.018,2.838,1.927.241,8.111-1.053,6.811,3.022-.622,1.927-3.6,1.987-5.134,3.406-.795.738-1.161,1.828-2.035,2.486l-.034.023c3.973.06,10.532,1.632,14.4,10.427,5.829,13.271,9.329,17.6,13.994,21.061,4.439,3.295,6.5,13.906,6.692,14.922,1.229,3.1,1.9,8.8-2.026,18.254-3.326,8.017-6.221,13.475-8.261,17.576l.4-.037a22.879,22.879,0,0,0,2.537-.338c3.289-.624,11.579-1.93,13.81.284,2.8,2.77,1.867,7.62-5.6,8.313a42.48,42.48,0,0,1-5.134.119v12.161l.162.1h0c1.462.871,2.869,1.652,3.817,2.165l.346.187a7.945,7.945,0,0,0,.681-1.419l7.708,5.069-3.826,3.176,3.891,4.021c.122-.108.241-.219.363-.326a33.88,33.88,0,1,1-11.389,31.428c-6.527.485-12.6.633-16.58.051v3.911H285.3v-4.728l-.437-.028c-7.87-.568-3.789-4.039-3.789-4.039a10.713,10.713,0,0,0,5.188-1.882c.491-.309,1-.59,1.513-.851a7.314,7.314,0,0,1,.406-5.063L248.29,229.548l-6.1,16.858.406.167a34.355,34.355,0,1,1-13.662-2.81Zm-1.828,59.388,1.419-21.907a3.738,3.738,0,0,1-.769-.193l-11.721,18.7a25.931,25.931,0,0,0,11.071,3.4Zm22.877-10.467-17.95-12.876-.034.045,7.362,21.254a25.945,25.945,0,0,0,10.623-8.423ZM216.9,254.96l9.851,19.477a3.731,3.731,0,0,1,1.632-.885l.238-.735-.678-20.831a25.96,25.96,0,0,0-11.043,2.971Zm12.24,16.233,6-18.512a26.233,26.233,0,0,0-6.079-.712h-.545ZM239.8,254.27c-.133-.06-.284-.114-.4-.173L232,274.6a3.689,3.689,0,0,1,.71,1.022l18.975-10.529a25.654,25.654,0,0,0-2.444-3.547l-2.117-2.3a25.959,25.959,0,0,0-7.319-4.972ZM251.934,265.6l-19.054,10.574a3.652,3.652,0,0,1,.131.959v.145l21.926-.386a25.29,25.29,0,0,0-2.991-11.29Zm-26.6,11.6-21.007-7.245a25.454,25.454,0,0,0,2.852,21.367l18.7-11.792a3.644,3.644,0,0,1-.568-1.933,3.69,3.69,0,0,1,.037-.395ZM204.5,269.4l20.947,7.226a7.663,7.663,0,0,1,.851-1.728l-9.933-19.664a25.775,25.775,0,0,0-11.854,14.17Zm49.322-55.142-1.473,4.07,25.406,7.827.264-5.247-14.474-4.257a3.177,3.177,0,0,0,.06.971,8.644,8.644,0,0,1-.985-1.243l-8.633-2.537Zm97.536,88.773,1.419-21.853a3.766,3.766,0,0,1-.851-.111l-11.636,18.58a25.934,25.934,0,0,0,11.068,3.383Zm22.877-10.461-17.95-12.862-.034.045,7.362,21.24a25.945,25.945,0,0,0,10.623-8.423Zm4.958-15.8a25.289,25.289,0,0,0-3-11.29l-19.378,10.753a3.635,3.635,0,0,1,.2.917Zm-38.049-21.929,8.977,17.769,1.374,1.419a3.752,3.752,0,0,1,1.342-.25h.054l-.7-21.909a25.948,25.948,0,0,0-11.046,2.971Zm-8.588,7.294a25.422,25.422,0,0,0-3.8,7.149l18.87,6.508Zm16.162,14.644-20.15-6.945q-.284.939-.522,1.91c-.034.148-.065.284-.1.44,9.056,1.882,17.5,3.959,21.035,4.847Zm4.756-2.991a3.743,3.743,0,0,1,1.609.437l7.631-20.629a26.067,26.067,0,0,0-9.411-1.745h-.545Zm2.12.766a3.717,3.717,0,0,1,1,1.149l19.321-10.73a25.668,25.668,0,0,0-2.441-3.556l-2.123-2.31a25.953,25.953,0,0,0-8.094-5.3Zm-27.676,7.989a25.323,25.323,0,0,0,3.513,8.653l18.351-11.573C346.036,280.221,337.227,281.555,327.915,282.545Zm-8.193-12.43a33.656,33.656,0,0,1,6.6-13.622l-.9-.814-7.822,7.637v6.891q1,.173,2.023.358c.031-.15.06-.3.094-.446Zm-2.12-14.5.17-.165-.17.139Zm-6.068-10-.02-.014-.429-.284-.19-.128-.21-.139-.238-.156-.221-.142-.27-.173-.224-.142-.329-.2-.2-.125-.352-.213a13.708,13.708,0,0,1-.954,3.746l-.111,10.169a19.23,19.23,0,0,0,3.749-6.332Zm-32.526-44.557c-.69.613-1.135.993-1.135.993s-1.462,1.317-3.125,3.02c1.479,0,2.852,0,4.058.031Zm-.508,10.117c-2.37.082-5.452.165-8.733.187-.023.071-.045.142-.06.207a15.505,15.505,0,0,0-1.961.755l10.518,3.57Zm-2.673-18.646a70.156,70.156,0,0,1,4.808-9.967c-1.393-4.081-3.99-8.4-8.84-10.31l.034.389.017.21c.153,1.791.329,3.973.48,6.215v.131q.025.4.054.8v.139l.02.329.02.324.017.284.034.568v.162a4.687,4.687,0,0,0,.026.488v.19q.014.284.028.585v.034q.017.326.028.647v.1q0,.284.023.59v.045q.026.65.04,1.269v.045c0,.411.017.809.023,1.192v1.138h0v.525c0,.318-.02.616-.037.891v.051c-.017.267-.04.514-.065.732v.051q-.017.139-.037.264v.045c-.017.091-.031.179-.051.255v.031c-.014.065-.031.125-.048.179l-.014.048a1.327,1.327,0,0,1-.065.162c-.485.959-.718,3.911-.823,7.035,2.5-3.23,4.334-5.872,4.334-5.872ZM311.535,268.8v-8.182l-3.814,3.162h0l-.054,5.026c1.22.119,2.517.284,3.871.46Zm0-42.49c-.988-.125-1.958-.284-2.9-.437a8.762,8.762,0,0,0-.159,2.134v4.328h-.2a38.212,38.212,0,0,1,3.252,2.307V226.31Zm24.674,31.925,12.547,12.961-8.122-16.077a25.942,25.942,0,0,0-4.056,2.793C336.449,258.013,336.33,258.138,336.208,258.232Zm42.99,19.244v-.128l-22.188.392a3.64,3.64,0,0,1-.423,1.467L374.561,292.1A25.329,25.329,0,0,0,379.2,277.476Zm-25.9,25.63a26.051,26.051,0,0,0,9.771-1.89l-7.274-21a3.735,3.735,0,0,1-2.441.951l-1.419,21.9C352.388,303.092,352.842,303.106,353.3,303.106Zm-13.515-3.769,11.576-18.467a3.739,3.739,0,0,1-1.189-.806l-18.419,11.619A25.911,25.911,0,0,0,339.784,299.337Zm-46.878-32.657a7.537,7.537,0,0,1,2.063-.284h.465a7.5,7.5,0,0,1,3.4.8c.494-3.048.744-6.93-.36-9.919a32.1,32.1,0,0,1-1.476-5.56l-2.37-13.4-44.094-14.962-.539,1.493Zm-37.953,10.912v-.128l-22,.389a10.807,10.807,0,0,1-.6,1.47l17.973,12.893a25.329,25.329,0,0,0,4.626-14.624Zm-25.9,25.63a26.053,26.053,0,0,0,9.771-1.89l-7.274-21a3.735,3.735,0,0,1-2.441.951l-1.419,21.9Q228.37,303.223,229.054,303.223Zm-13.517-3.766,11.69-18.646a3.74,3.74,0,0,1-1-.817L207.491,291.8a25.92,25.92,0,0,0,8.046,7.654Z" transform="translate(-162.653 -117.918)" fill="url(#linear-gradient)"/>
  <path id="Path_233" data-name="Path 233" d="M671.69,628.057l1.777-27.784.037-.06,1.794.624,8.256,24.069,13.126-9.309-20.913-15.158-.02-.06-.119-.043-1.348-.979L696.2,587.068l5.372,5.9-.851,5.534-25.2.448v.568l25.678-.46.965-6.275-7.348-8.074-10.989-12.819-.2.531L681.3,569.87l-8.667,1.552v-.343l-.568.017v.429l-12.873,2.3,12.013,24.024,1.751,1.269v.3L645.2,589.75l3.295,25.885,23.555-15,.829-.466L658.99,622.555Zm1.135-26.774-1.66,25.934L659.8,622.285ZM695.691,615.6l-11.86,8.409-7.759-22.63Zm-23.362-15.8-.593.332-22.8,14.531-3.065-24.086Zm2.015-2.043-.712,1.149-.125-.091-.851-26.828,8.44-1.515,2.316,2.554Zm21.4-11.082L674.5,598.6l.369-.6,8.962-24.483,10.557,11.6Zm-23.661-14.585.851,26.305-1.283-.931-11.61-23.221Z" transform="translate(-605.204 -441.606)" fill="#535461"/>
  <path id="Path_234" data-name="Path 234" d="M245.484,627.643l1.779-27.8.037-.06,1.794.624,8.253,24.08,13.126-9.306-20.908-15.158-.02-.06-.119-.043-1.348-.979L270,586.657l5.37,5.9-.851,5.534-25.207.46v.568l25.678-.46.971-6.283-7.35-8.077-11-12.828-.2.531-2.327-2.554L246.443,571v-.343l-.568.017v.429L233,573.406l12,24.012,1.751,1.269v.3L219,589.316l3.295,25.885,23.555-15,.829-.465L232.79,622.118Zm1.135-26.774-1.66,25.934-11.366-4.932Zm22.869,14.312-11.86,8.409-7.759-22.63Zm-23.362-15.8-.593.332-22.8,14.531-3.065-24.086Zm2.015-2.043-.712,1.149-.125-.091-.851-26.828,8.44-1.51,2.316,2.554Zm21.4-11.085-21.24,11.92.369-.6,8.962-24.483,10.555,11.6Zm-23.669-14.584.851,26.314-1.283-.931-11.61-23.221Z" transform="translate(-58.045 -441.305)" fill="#535461"/>
  <rect id="Rectangle_38" data-name="Rectangle 38" width="17.028" height="5.392" transform="matrix(-0.712, 0.702, -0.702, -0.712, 165.95, 132.045)" fill="#5b86e5"/>
  <rect id="Rectangle_39" data-name="Rectangle 39" width="17.028" height="5.392" transform="matrix(-0.712, 0.702, -0.702, -0.712, 165.95, 132.045)" opacity="0.1"/>
  <path id="Path_235" data-name="Path 235" d="M468.807,507.273s-7.035-3.712-9.754-6.1a37.009,37.009,0,0,0-5.259-3.84l-8.826-5.372-18.447-1.419-.851,3.122s-1.419,4.541,12.771,8.514,21.285,10.217,21.285,10.217S468.807,515.5,468.807,507.273Z" transform="translate(-309.535 -384.79)" fill="#db8b8b"/>
  <path id="Path_236" data-name="Path 236" d="M425.63,552.435c.5.383.752.6.752.6s9.082,3.122,9.082-5.108c0,0-.44-.233-1.135-.621a7.853,7.853,0,0,1-6.692,3.743h-.962Z" transform="translate(-276.192 -425.448)" opacity="0.1"/>
  <path id="Path_237" data-name="Path 237" d="M425.931,495.2c.789,1.672,3.511,4.419,12.5,6.936,11.525,3.227,18.37,7.946,20.533,9.612.5.383.752.6.752.6s9.082,3.122,9.082-5.108c0,0-.44-.233-1.135-.621a59.642,59.642,0,0,1-8.611-5.492,36.9,36.9,0,0,0-5.259-3.84l-8.826-5.372-3.286-.253L426.524,490.5l-.851,3.122A2.307,2.307,0,0,0,425.931,495.2Z" transform="translate(-309.531 -384.761)" opacity="0.05"/>
  <path id="Path_238" data-name="Path 238" d="M416.16,543l7.521,4.966-22.023,18.447s-3.235-1.987-1.533-4.257c0,0,5.676-4.825,5.96-11.636l1.7-2.27h.962A7.853,7.853,0,0,0,416.16,543Z" transform="translate(-257.03 -422.359)" fill="#abb1d1"/>
  <path id="Path_239" data-name="Path 239" d="M521.516,495.2c4.541-2.194,15.626-2.429,15.626-2.429l.119-1.1L522.1,490.5l-.851,3.122A2.35,2.35,0,0,0,521.516,495.2Z" transform="translate(-405.115 -384.761)" opacity="0.1"/>
  <path id="Path_240" data-name="Path 240" d="M526.374,417.718s-13.339.284-16.744,3.122l1.7-34.34H529.78Z" transform="translate(-394.348 -310.276)" fill="#abb1d1"/>
  <path id="Path_241" data-name="Path 241" d="M526.374,417.218s-13.339.284-16.744,3.122l1.7-34.34H529.78Z" transform="translate(-394.348 -309.918)" opacity="0.05"/>
  <path id="Path_242" data-name="Path 242" d="M663.091,556.12a33.344,33.344,0,0,1,8.914,1.2,32.8,32.8,0,0,1,4.388,1.552,33.4,33.4,0,1,1-13.3-2.756Zm.114,58.488a25.218,25.218,0,0,0,10.472-48.155,24.906,24.906,0,0,0-4.132-1.467,25.216,25.216,0,1,0-6.343,49.622Z" transform="translate(-595.16 -431.758)" fill="#535461"/>
  <path id="Path_243" data-name="Path 243" d="M590.792,422.12s-33.389-1.135-34.07,3.181,33.389,2.5,33.389,2.5S592.836,425.071,590.792,422.12Z" transform="translate(-469.482 -335.691)" fill="#535461"/>
  <path id="Path_244" data-name="Path 244" d="M590.792,422.12s-33.389-1.135-34.07,3.181,33.389,2.5,33.389,2.5S592.836,425.071,590.792,422.12Z" transform="translate(-469.482 -335.691)" opacity="0.05"/>
  <ellipse id="Ellipse_38" data-name="Ellipse 38" transform="translate(143.569 178.423)" fill="none" stroke="#c1272d" stroke-miterlimit="10" stroke-width="1"/>
  <rect id="Rectangle_40" data-name="Rectangle 40" width="5.906" height="51.334" transform="translate(148.34 103.693)" fill="#5b86e5"/>
  <path id="Path_245" data-name="Path 245" d="M443.34,483.28v3.953c1.964.255,3.973.417,5.906.48V483.28Z" transform="translate(-295 -379.59)" opacity="0.1"/>
  <path id="Path_246" data-name="Path 246" d="M413.343,465.086a22.057,22.057,0,0,0,2.469-.332c3.2-.613,11.273-1.9,13.444.284,2.725,2.724,1.816,7.5-5.452,8.176s-19.761-1.135-22.261-3.863A22.573,22.573,0,0,1,413.343,465.086Z" transform="translate(-264.561 -365.65)" fill="#535461"/>
  <path id="Path_247" data-name="Path 247" d="M451.454,426.677l-62.01-19.307-2.043,4.771,63.6,21.8Z" transform="translate(-301.525 -308.902)" fill="#5b86e5"/>
  <path id="Path_248" data-name="Path 248" d="M499.474,471.446,454.728,427.38l-2.5,3.633,42.7,44.52Z" transform="translate(-367.944 -323.233)" fill="#5b86e5"/>
  <path id="Path_249" data-name="Path 249" d="M700.61,568.015a24.9,24.9,0,0,1,4.132,1.467l2.713-7.58a32.8,32.8,0,0,0-4.388-1.552Z" transform="translate(-626.223 -434.788)" opacity="0.1"/>
  <path id="Path_250" data-name="Path 250" d="M587.49,442.023l3.179,1.816,22.176-61.962.993-2.773-5.225-2.954-1.308,4.081Z" transform="translate(-520.695 -286.542)" fill="#5b86e5"/>
  <path id="Path_251" data-name="Path 251" d="M587.49,380.231l5.54,1.646.993-2.773L588.8,376.15Z" transform="translate(-500.88 -286.542)" opacity="0.1"/>
  <path id="Path_252" data-name="Path 252" d="M596.435,437.937,565.316,427.26s-5.452.681-3.406,5.225l31.343,9.311S598.021,442.25,596.435,437.937Z" transform="translate(-476.032 -339.469)" fill="#535461"/>
  <path id="Path_253" data-name="Path 253" d="M204.459,581.757a33.267,33.267,0,0,1,6.729-13.787,33.455,33.455,0,1,1-7.543,21.14A33.364,33.364,0,0,1,204.459,581.757Zm32.691,32.453a25.187,25.187,0,1,0-24.8-20.663A25.187,25.187,0,0,0,237.15,614.209Z" transform="translate(-48.151 -431.473)" fill="#535461"/>
  <path id="Path_254" data-name="Path 254" d="M407.49,654.828a33.8,33.8,0,0,0,.4,5.194c2.725-.19,5.541-.474,8.3-.758a25.425,25.425,0,0,1,.224-10.183c-2.688-.568-5.432-1.11-8.111-1.6a33.368,33.368,0,0,0-.815,7.348Z" transform="translate(-251.996 -497.19)" opacity="0.1"/>
  <path id="Path_255" data-name="Path 255" d="M443.34,642.89v6.036h5.906v-5.108C447.2,643.463,445.216,643.148,443.34,642.89Z" transform="translate(-295 -493.903)" opacity="0.1"/>
  <path id="Path_256" data-name="Path 256" d="M382,650.776s-47.7-12.487-51.561-7.722-7.949,11.128,4.078,13.4S382.9,652.59,382.9,652.59Z" transform="translate(-195.5 -493.244)" fill="#5b86e5"/>
  <path id="Path_257" data-name="Path 257" d="M378.24,588.452,384.3,594a25.256,25.256,0,0,1,3.621-3.769l-5.659-5.912a33.708,33.708,0,0,0-4.024,4.132Z" transform="translate(-215.202 -451.955)" opacity="0.1"/>
  <path id="Path_258" data-name="Path 258" d="M289.738,512.652,254.078,475.4l-1.138,8.63,34.981,32.027Z" transform="translate(-101.649 -357.625)" fill="#5b86e5"/>
  <ellipse id="Ellipse_39" data-name="Ellipse 39" cx="3.635" cy="3.635" rx="3.635" ry="3.635" transform="translate(184.907 153.888)" opacity="0.1"/>
  <ellipse id="Ellipse_40" data-name="Ellipse 40" cx="3.635" cy="3.635" rx="3.635" ry="3.635" transform="translate(185.364 153.888)" fill="#535461"/>
  <ellipse id="Ellipse_41" data-name="Ellipse 41" cx="3.635" cy="3.635" rx="3.635" ry="3.635" transform="translate(64.636 153.548)" opacity="0.1"/>
  <ellipse id="Ellipse_42" data-name="Ellipse 42" cx="3.635" cy="3.635" rx="3.635" ry="3.635" transform="translate(64.409 154.002)" fill="#535461"/>
  <ellipse id="Ellipse_43" data-name="Ellipse 43" cx="7.268" cy="7.268" rx="7.268" ry="7.268" transform="translate(125.4 146.623)" opacity="0.1"/>
  <ellipse id="Ellipse_44" data-name="Ellipse 44" cx="7.268" cy="7.268" rx="7.268" ry="7.268" transform="translate(124.943 146.623)" fill="#535461"/>
  <rect id="Rectangle_41" data-name="Rectangle 41" width="3.863" height="13.492" rx="1.931" transform="translate(127.62 165.309) rotate(-143.21)" fill="#5b86e5"/>
  <path id="Path_259" data-name="Path 259" d="M597.4,298.054l.675,8.545a19.189,19.189,0,0,1-.043,3.25,12.135,12.135,0,0,0,.937,5.185,29.77,29.77,0,0,1,1.836,10.188v9.726l6.527-1.135s-.284-13.622.851-15.893-.851-22.42-.851-22.42Z" transform="translate(-498.006 -245.102)" fill="#db8b8b"/>
  <path id="Path_260" data-name="Path 260" d="M597.744,302.288l.341,4.311a19.168,19.168,0,0,1-.045,3.247,12.151,12.151,0,0,0,.937,5.188,29.767,29.767,0,0,1,1.836,10.188v9.726l6.527-1.135s-.284-13.622.851-15.893c.8-1.609.043-12.186-.471-18.223-.213-2.483-.38-4.2-.38-4.2l-9.933,2.554Z" transform="translate(-498.019 -245.102)" opacity="0.05"/>
  <path id="Path_261" data-name="Path 261" d="M474.07,493.564l2.455,13.963A31.846,31.846,0,0,0,477.944,513c1.439,3.933.519,9.448-.179,12.456-.309,1.328-.568,2.168-.568,2.168l7.379,3.973,2.27-1.7v-1.135l.284-25.258c1.7-3.973,1.135-9.933,0-12.2a9.621,9.621,0,0,1-.675-2.333,63.245,63.245,0,0,1-.744-7.316s-4.541-7.663-9.933-2.554a9.86,9.86,0,0,0-2.9,6.7A20.149,20.149,0,0,0,474.07,493.564Z" transform="translate(-342.333 -375.338)" fill="#db8b8b"/>
  <path id="Path_262" data-name="Path 262" d="M479.01,485.766c3.936,2.339,10.784,3,13.577,3.173a63.245,63.245,0,0,1-.744-7.316s-4.541-7.663-9.933-2.554A9.86,9.86,0,0,0,479.01,485.766Z" transform="translate(-348.465 -375.316)" opacity="0.1"/>
  <path id="Path_263" data-name="Path 263" d="M429.378,375.786a51.93,51.93,0,0,1,8.514,5.676c4.541,3.689,15.893,3.973,15.893,3.973v-4.257c-.284-5.108,4.541-10.784,11.068-26.677,4.169-10.149,3.014-15.893,1.635-18.731a6.824,6.824,0,0,0-1.635-2.27l-35.475,6.811-1.269,3.8-2.7,8.117s9.933.568,11.636,1.419.568,8.514.568,8.514C439.311,370.11,429.378,375.786,429.378,375.786Z" transform="translate(-308.42 -272.318)" fill="#abb1d1"/>
  <path id="Path_264" data-name="Path 264" d="M600.29,298.054l.335,4.234c4.938,1.419,8.463-3.1,8.463-3.1a13,13,0,0,1,1.516.508c-.213-2.483-.38-4.2-.38-4.2Z" transform="translate(-500.9 -245.102)" opacity="0.1"/>
  <path id="Path_265" data-name="Path 265" d="M428.63,344.114c.133,1.325.133,2.157.133,2.157s6.527,5.392,17.6-2.838,21-5.96,21-5.96-.116-.658-.352-1.7a6.823,6.823,0,0,0-1.635-2.27L429.9,340.311Z" transform="translate(-308.94 -272.318)" opacity="0.1"/>
  <path id="Path_266" data-name="Path 266" d="M428.809,204.573c.741,5.775.988,13.055.988,13.055,6.527,5.108,11.636-1.419,11.636-1.419,6.164,1.655,9.062,7.05,10.427,11.758a31.434,31.434,0,0,1,1.209,7.824,9.495,9.495,0,0,0,4.9,1.7c3.005.253,7.314-.531,12.692-4.541,11.068-8.23,21-5.96,21-5.96s-1.987-11.352-6.527-14.758-7.946-7.663-13.622-20.717-17.312-9.933-17.312-9.933-.568-2.554-11.068,0a17.1,17.1,0,0,0-6.916,3.664A21.633,21.633,0,0,0,428.809,204.573Z" transform="translate(-333.245 -162.703)" fill="#fff"/>
  <path id="Path_267" data-name="Path 267" d="M559.666,198.69c.014.377.045.8.1,1.266.568,5.108,1.135,4.541,7.379,5.676,3.882.707,5.9-2.537,6.871-5.091a16.074,16.074,0,0,0,.792-2.855l-13.622-2.27S559.549,194.958,559.666,198.69Z" transform="translate(-453.57 -173.409)" fill="#db8b8b"/>
  <path id="Path_268" data-name="Path 268" d="M495.63,290.348a31.433,31.433,0,0,1,1.209,7.824,9.494,9.494,0,0,0,4.9,1.7,2.64,2.64,0,0,0,.2-.568c.568-2.554,4.825-7.1,4.825-7.1,2.838-2.554,3.406-7.1,3.406-7.1l4.683-13.764,1.561-1.277s-6.527-5.108-12.2-.851-3.973,13.339-3.973,13.339l-1.135,3.122A18.394,18.394,0,0,0,495.63,290.348Z" transform="translate(-377.016 -225.071)" opacity="0.05"/>
  <path id="Path_269" data-name="Path 269" d="M537.794,269.077l-6.244,15.041s-.568,4.541-3.406,7.095c0,0-4.257,4.541-4.825,7.1s-8.514,9.365-8.514,9.365-7.379,6.811-7.946,9.365c0,0-6.811,1.987-5.96,5.96,0,0-5.108-5.108,0-9.933s11.92-14.758,11.92-14.758,3.973-10.5,7.663-13.622l1.135-3.122s-1.7-9.082,3.973-13.339S537.794,269.077,537.794,269.077Z" transform="translate(-399.24 -224.355)" fill="#db8b8b"/>
  <path id="Path_270" data-name="Path 270" d="M477.63,649.064l7.379,3.973,2.27-1.7V650.2a17.187,17.187,0,0,1-7.251-2.188c-.681-.386-1.322-.766-1.836-1.1C477.894,648.224,477.63,649.064,477.63,649.064Z" transform="translate(-342.765 -496.782)" opacity="0.1"/>
  <path id="Path_271" data-name="Path 271" d="M481.6,224.029l-3.973,15.609s12.2,1.987,14.758,0,7.379-2.554,7.379-2.554-5.108-14.758-7.946-16.46S481.6,224.029,481.6,224.029Z" transform="translate(-355.252 -191.226)" opacity="0.1"/>
  <path id="Path_272" data-name="Path 272" d="M481.6,222.029l-3.973,15.609s12.2,1.987,14.758,0,7.379-2.554,7.379-2.554-5.108-14.758-7.946-16.46S481.6,222.029,481.6,222.029Z" transform="translate(-355.252 -189.794)" fill="#fff"/>
  <path id="Path_273" data-name="Path 273" d="M559.666,197.69a9.933,9.933,0,0,0,14.346,1.85,16.08,16.08,0,0,0,.792-2.855l-13.622-2.27S559.55,193.958,559.666,197.69Z" transform="translate(-453.57 -172.693)" opacity="0.1"/>
  <path id="Path_274" data-name="Path 274" d="M549.633,158.8a9.933,9.933,0,0,0,19.866,0v-.494a9.936,9.936,0,0,0-19.866.494Z" transform="translate(-445.419 -139.906)" fill="#db8b8b"/>
  <path id="Path_275" data-name="Path 275" d="M549.7,158.8a9.9,9.9,0,0,0,.375,2.707,3.823,3.823,0,0,0,2.293-.21c1.061-.417,1.972-1.135,2.991-1.652,2.869-1.453,6.283-1.166,9.462-.687,1.578.238,3.369.46,4.609-.545a1.461,1.461,0,0,0,.122-.108,9.936,9.936,0,0,0-19.866.494Z" transform="translate(-445.483 -139.906)" opacity="0.1"/>
  <path id="Path_276" data-name="Path 276" d="M555.712,132.106c-.6,1.9-3.508,1.955-5,3.352-.775.727-1.135,1.8-1.987,2.446-1.183.9-2.892.7-4.4.488-3.034-.431-6.292-.69-9.028.619-.971.463-1.842,1.11-2.855,1.487a3.228,3.228,0,0,1-3.093-.247c-.658-.536-.9-1.419-1.5-2.009a15.764,15.764,0,0,0-1.635-1.135,6.2,6.2,0,0,1-1.987-3.661,13.365,13.365,0,0,1,.284-8.486,7.642,7.642,0,0,1,7-4.686c.934.043,1.845.284,2.776.386,2.426.247,4.825-.568,7.26-.707a4.135,4.135,0,0,1,2.08.284,3.8,3.8,0,0,1,1.252,1.121,11.956,11.956,0,0,1,2.231,4.961c.284,1.359.3,2.591,1.964,2.8C550.975,129.37,556.992,128.1,555.712,132.106Z" transform="translate(-424.446 -119.354)" fill="#472727"/>
  <path id="Path_277" data-name="Path 277" d="M474.191,292s-7.379,1.987-9.649,7.1-8.412,6.042-8.412,6.042" transform="translate(-323.575 -242.595)" opacity="0.05"/>
  <rect id="Rectangle_42" data-name="Rectangle 42" width="17.028" height="5.392" transform="translate(122.803 161.789)" fill="#5b86e5"/>
  <rect id="Rectangle_43" data-name="Rectangle 43" width="17.028" height="5.392" transform="translate(122.803 161.789)" opacity="0.1"/>
  <path id="Path_278" data-name="Path 278" d="M485.246,647.555a10.31,10.31,0,0,1-2.977-2.055s-3.845,4.058-7.271,5.318a17.139,17.139,0,0,0-3.289,1.635,10.463,10.463,0,0,1-5.049,1.853s-3.973,3.406,3.689,3.973,25.542-1.419,25.542-1.419l-1.135-7.095h0A17.247,17.247,0,0,1,485.246,647.555Z" transform="translate(-347.972 -495.772)" fill="#abb1d1"/>
</svg>
