<svg xmlns="http://www.w3.org/2000/svg" width="24" height="24" viewBox="0 0 24 24">
  <g id="Group_350" data-name="Group 350" transform="translate(371 -696)">
    <rect id="Rectangle_3" data-name="Rectangle 3" width="24" height="24" transform="translate(-371 696)" fill="none"/>
    <path id="Path_2" data-name="Path 2" d="M77.762,73.419H73.415v4.347h4.347ZM76.313,64v1.449H69.067V64H66.894v1.449H65.806A1.817,1.817,0,0,0,64,67.261V79.578a1.817,1.817,0,0,0,1.811,1.811H79.573a1.817,1.817,0,0,0,1.811-1.811V67.261a1.817,1.817,0,0,0-1.811-1.811H78.487V64Zm3.261,15.578H65.806v-9.6H79.573Z" transform="translate(-431.647 635.659)" fill="#fff"/>
  </g>
</svg>
