<svg xmlns="http://www.w3.org/2000/svg" width="24" height="24" viewBox="0 0 24 24">
  <g id="Group_347" data-name="Group 347" transform="translate(511 -565)">
    <rect id="Rectangle_2" data-name="Rectangle 2" width="24" height="24" transform="translate(-511 565)" fill="none"/>
    <path id="Layer_2" data-name="Layer 2" d="M19,4H16V3a1,1,0,0,0-1-1H9A1,1,0,0,0,8,3V4H5A1,1,0,0,0,4,5V21a1,1,0,0,0,1,1H19a1,1,0,0,0,1-1V5A1,1,0,0,0,19,4ZM10,4h4V6H10ZM8,10h5a1,1,0,0,1,0,2H8a1,1,0,0,1,0-2Zm8,8H8a1,1,0,0,1,0-2h8a1,1,0,0,1,0,2Zm0-3H8a1,1,0,0,1,0-2h8a1,1,0,0,1,0,2Z" transform="translate(-511 565)" fill="rgba(255,255,255,0.74)" opacity="0.6"/>
  </g>
</svg>
