<svg id="_Trailing_icon_3" data-name="ðŸ“Trailing icon 3" xmlns="http://www.w3.org/2000/svg" xmlns:xlink="http://www.w3.org/1999/xlink" width="17.49" height="17.49" viewBox="0 0 17.49 17.49">
  <defs>
    <clipPath id="clip-path">
      <path id="_Color" data-name=" â†³Color" d="M16,17.49h0L11,12.5v-.79l-.27-.28a6.509,6.509,0,1,1,.7-.7l.28.27h.79l4.99,5L16,17.489ZM6.5,2A4.5,4.5,0,1,0,11,6.5,4.505,4.505,0,0,0,6.5,2Z" transform="translate(3 3)"/>
    </clipPath>
  </defs>
  <g id="Group_213" data-name="Group 213" transform="translate(-3 -3)">
    <path id="_Color-2" data-name=" â†³Color" d="M16,17.49h0L11,12.5v-.79l-.27-.28a6.509,6.509,0,1,1,.7-.7l.28.27h.79l4.99,5L16,17.489ZM6.5,2A4.5,4.5,0,1,0,11,6.5,4.505,4.505,0,0,0,6.5,2Z" transform="translate(3 3)" fill="rgba(247,72,46,0.74)"/>
  </g>
</svg>
